<svg xmlns="http://www.w3.org/2000/svg" viewBox="0 0 512 512">
<rect x="8" y="8" width="496" height="496" rx="46" fill="#F2E6C9" stroke="#211D15" stroke-width="14"/>
<rect x="22" y="22" width="468" height="468" rx="34" fill="none" stroke="#211D15" stroke-width="3" opacity="0.28"/>
<clipPath id="tile"><rect x="15" y="15" width="482" height="482" rx="40"/></clipPath>
<g clip-path="url(#tile)">
<g transform="rotate(-26 256 256)">
<rect x="-120" y="86"  width="760" height="34" fill="#E2A72E"/>
<rect x="-120" y="128" width="760" height="34" fill="#D6472B"/>
<rect x="-120" y="170" width="760" height="34" fill="#2E4D9E"/>
</g></g>
<circle cx="256" cy="264" r="188" fill="#FBF2DC" stroke="#211D15" stroke-width="12"/>
<line x1="256.0" y1="204.0" x2="256.0" y2="82.0" stroke="#211D15" stroke-width="9" stroke-linecap="round"/>
<line x1="313.1" y1="245.5" x2="429.1" y2="207.8" stroke="#211D15" stroke-width="9" stroke-linecap="round"/>
<line x1="291.3" y1="312.5" x2="363.0" y2="411.2" stroke="#211D15" stroke-width="9" stroke-linecap="round"/>
<line x1="220.7" y1="312.5" x2="149.0" y2="411.2" stroke="#211D15" stroke-width="9" stroke-linecap="round"/>
<line x1="198.9" y1="245.5" x2="82.9" y2="207.8" stroke="#211D15" stroke-width="9" stroke-linecap="round"/>
<clipPath id="ball"><circle cx="256" cy="264" r="182"/></clipPath>
<g clip-path="url(#ball)">
<path d="M 374.7,100.6 L 393.6,158.7 L 344.2,194.6 L 294.7,158.7 L 313.6,100.6 Z" fill="#211D15"/>
<path d="M 448.1,326.4 L 398.7,362.4 L 349.2,326.4 L 368.1,268.3 L 429.2,268.3 Z" fill="#211D15"/>
<path d="M 256.0,466.0 L 206.5,430.1 L 225.4,371.9 L 286.6,371.9 L 305.5,430.1 Z" fill="#211D15"/>
<path d="M 63.9,326.4 L 82.8,268.3 L 143.9,268.3 L 162.8,326.4 L 113.3,362.4 Z" fill="#211D15"/>
<path d="M 137.3,100.6 L 198.4,100.6 L 217.3,158.7 L 167.8,194.6 L 118.4,158.7 Z" fill="#211D15"/>
<path d="M 256.0,204.0 L 313.1,245.5 L 291.3,312.5 L 220.7,312.5 L 198.9,245.5 Z" fill="#211D15"/>
</g>
<circle cx="256" cy="264" r="188" fill="none" stroke="#211D15" stroke-width="12"/>
</svg>